<?xml version="1.0" encoding="utf-8" ?><svg xmlns="http://www.w3.org/2000/svg" xmlns:xlink="http://www.w3.org/1999/xlink" width="367" height="403" viewBox="0 0 367 403"><defs><linearGradient id="gradient_0" gradientUnits="userSpaceOnUse" x1="275.34521" y1="360.54544" x2="151.26501" y2="26.067162"><stop offset="0" stop-color="#96BFE5"/><stop offset="1" stop-color="#E9EAF5"/></linearGradient></defs><path fill="url(#gradient_0)" d="M95.0465 51.8781C115.83 46.2321 136.179 39.0981 155.939 30.5315C164.366 26.8428 172.635 22.0132 181.117 18.3064C184.397 16.873 187.667 14.4594 191.117 13.3628C193.513 12.7576 202.447 18.2068 204.944 19.4276C212.326 23.0367 219.59 26.7682 227.02 30.1657C235.295 33.9803 243.714 37.4733 252.26 40.6369C257.312 42.4731 262.628 43.9283 267.616 45.7862C291.745 54.7735 316.921 59.6195 341.808 65.8428C343.509 66.2682 347.386 67.3709 347.605 69.4234C348.051 73.7243 347.963 78.2576 347.998 82.5911L348.113 112.382C348.115 127.059 348.342 141.957 347.59 156.614C344.934 208.433 333.07 256.394 303.328 299.576C299.984 304.431 287.856 321.673 283.547 324.461L280.204 328.287C278.946 330.753 270.844 338.545 268.553 340.851C246.129 363.426 220.022 379.191 191.958 393.786C189.356 392.953 184.397 389.913 181.698 388.422C167.635 380.658 153.125 371.957 140.235 362.355C106.143 337.104 78.9047 303.73 60.9976 265.27C48.614 238.62 42.4078 212.75 38.177 183.768C37.1291 180.392 36.7051 169.712 36.4927 166.05C36.3929 164.331 36.054 162.498 35.9823 160.829C35.5564 154.928 35.5828 148.008 35.527 142.044L35.3613 112.965L35.3301 87.448C35.3101 82.6274 35.203 77.7957 35.3044 72.9798C35.354 70.6277 36.0904 67.6277 38.5527 66.7116C43.9798 64.6924 49.8153 63.3921 55.4405 61.9882C61.5501 60.4077 67.6693 58.8647 73.7977 57.3592C80.689 55.6936 88.3166 53.9749 95.0465 51.8781Z"/><path fill="#040405" d="M95.0465 51.8781C115.83 46.2321 136.179 39.0981 155.939 30.5315C164.366 26.8428 172.635 22.0132 181.117 18.3064C184.397 16.873 187.667 14.4594 191.117 13.3628C193.513 12.7576 202.447 18.2068 204.944 19.4276C212.326 23.0367 219.59 26.7682 227.02 30.1657C235.295 33.9803 243.714 37.4733 252.26 40.6369C257.312 42.4731 262.628 43.9283 267.616 45.7862C291.745 54.7735 316.921 59.6195 341.808 65.8428C343.509 66.2682 347.386 67.3709 347.605 69.4234C348.051 73.7243 347.963 78.2576 347.998 82.5911L348.113 112.382C348.115 127.059 348.342 141.957 347.59 156.614C344.934 208.433 333.07 256.394 303.328 299.576C299.984 304.431 287.856 321.673 283.547 324.461C284.028 323.626 284.68 322.944 285.303 322.212C290.022 316.669 294.761 311.033 298.939 305.062C312.995 284.72 324.1 262.49 331.923 239.033C339.465 215.562 344.212 191.284 346.066 166.701C347.843 144.035 347.359 119.901 347.491 97.1437C347.521 91.8918 347.672 72.3394 345.966 68.7718C344.62 65.959 319.359 61.3026 315.285 60.2703C303.99 57.4084 291.572 54.5976 280.45 51.2007C262.608 45.5944 245.082 39.0294 227.947 31.5342C220.593 28.326 213.346 24.877 206.218 21.193C202.363 19.2123 195.597 15.132 191.727 14.0138C188.697 15.3392 185.364 17.1599 182.355 18.615C174.643 22.3435 166.952 26.401 159.164 29.9479C139.369 38.727 119.019 46.196 98.2447 52.3067C97.0574 51.7146 96.3988 51.8576 95.0465 51.8781Z"/><path fill="#27252D" d="M38.177 183.768L38.3613 183.699C38.898 184.272 38.945 185.707 39.0594 186.569C39.3016 185.272 38.8032 184.463 39.2822 183.206C40.6427 192.514 41.7425 200.91 43.7708 210.136C57.3783 272.031 89.3899 323.724 140.479 361.799C152.416 370.546 164.944 378.459 177.971 385.481C181.463 387.404 187.938 391.047 191.507 392.317C197.576 390.12 203.229 386.734 208.756 383.69C233.619 369.994 256.799 352.803 276.327 332.153C277.234 331.195 279.187 329.044 280.204 328.287C278.946 330.753 270.844 338.545 268.553 340.851C246.129 363.426 220.022 379.191 191.958 393.786C189.356 392.953 184.397 389.913 181.698 388.422C167.635 380.658 153.125 371.957 140.235 362.355C106.143 337.104 78.9047 303.73 60.9976 265.27C48.614 238.62 42.4078 212.75 38.177 183.768Z"/><path fill="#27252D" d="M95.0465 51.8781C96.3988 51.8576 97.0574 51.7146 98.2447 52.3067C86.5381 55.4873 74.7924 58.5222 63.0103 61.4106C58.3258 62.5383 40.6029 66.0938 37.2853 68.4501C35.6119 72.2838 35.9768 88.6068 35.9277 93.9419C35.7564 108.112 35.8133 122.285 36.0981 136.453C36.3667 143.856 36.6958 151.257 37.0854 158.655C37.0509 159.548 37.1829 160.055 36.7456 160.71L35.9823 160.829C35.5564 154.928 35.5828 148.008 35.527 142.044L35.3613 112.965L35.3301 87.448C35.3101 82.6274 35.203 77.7957 35.3044 72.9798C35.354 70.6277 36.0904 67.6277 38.5527 66.7116C43.9798 64.6924 49.8153 63.3921 55.4405 61.9882C61.5501 60.4077 67.6693 58.8647 73.7977 57.3592C80.689 55.6936 88.3166 53.9749 95.0465 51.8781Z"/><path fill="#040405" d="M37.0854 158.655C37.6669 167.377 38.4779 174.658 39.2822 183.206C38.8032 184.463 39.3016 185.272 39.0594 186.569C38.945 185.707 38.898 184.272 38.3613 183.699L38.177 183.768C37.1291 180.392 36.7051 169.712 36.4927 166.05C36.3929 164.331 36.054 162.498 35.9823 160.829L36.7456 160.71C37.1829 160.055 37.0509 159.548 37.0854 158.655Z"/><defs><linearGradient id="gradient_1" gradientUnits="userSpaceOnUse" x1="217.73747" y1="375.3577" x2="281.48941" y2="60.355305"><stop offset="0" stop-color="#1F47AA"/><stop offset="1" stop-color="#309BED"/></linearGradient></defs><path fill="url(#gradient_1)" d="M192.154 34.0401C225.336 54.0559 263.583 66.3735 300.93 75.9447C306.896 77.5052 312.899 78.9201 318.934 80.1882C321.41 80.7207 325.476 81.6805 327.945 81.8568C328.042 106.338 328.874 130.515 327.704 155.064C325.826 194.48 317.136 236.37 297.999 271.235C291.158 283.469 283.207 295.049 274.248 305.829C260.608 322.296 245.833 336.565 228.358 348.745C224.182 351.656 220.229 355 215.841 357.64C208.115 362.457 199.817 366.785 191.934 371.303C178.392 364.963 165.472 356.459 153.508 347.545C116.657 320.089 90.6525 287.391 74.1757 244.331C72.0871 238.502 69.8678 232.462 68.0772 226.537C60.0174 199.458 55.5491 171.438 54.7872 143.196C54.4827 129.155 54.4255 115.109 54.6157 101.066C54.7087 94.6263 54.9822 88.046 54.9743 81.6315C61.4882 81.0355 72.2531 78.4735 78.6775 76.9228C112.034 68.871 145.794 57.9409 176.428 42.3536C180.975 40.04 187.914 36.7124 192.154 34.0401Z"/><defs><linearGradient id="gradient_2" gradientUnits="userSpaceOnUse" x1="139.88548" y1="346.22455" x2="133.5833" y2="35.931393"><stop offset="0" stop-color="#5386D3"/><stop offset="1" stop-color="#48BEF9"/></linearGradient></defs><path fill="url(#gradient_2)" d="M74.4554 243.893C72.4341 238.172 70.2711 232.241 68.5258 226.438C60.4098 198.978 55.9294 170.572 55.199 141.946C55.0687 138.029 55.0713 134.034 55.0967 130.108C55.1815 117.022 54.9579 103.92 55.265 90.8383C55.3289 88.1151 55.161 85.3337 55.4129 82.6358C57.0222 81.6585 60.7037 81.2277 62.7016 80.8526C77.2026 78.1296 91.8611 74.286 106.011 70.1486C125.428 64.5365 144.436 57.5938 162.899 49.3698C171.83 45.3512 180.461 41.0157 189.044 36.2987C189.654 35.9639 191.738 34.8013 192.156 34.9924C196.648 37.0455 210.752 45.0978 214.453 46.5129C215.671 52.1176 207.776 87.1171 206.317 94.6138C204.63 103.286 202.736 114.804 201.281 123.743C199.235 136.048 197.346 148.379 195.615 160.732C194.655 167.326 193.514 174.328 192.781 180.937C191.749 190.237 191.87 199.914 190.928 209.252C189.887 219.201 188.11 229.339 186.777 239.277C185.694 247.348 184.978 255.354 183.554 263.371C181.845 272.994 179.975 282.588 177.946 292.149C176.785 297.804 175.675 303.517 174.324 309.126C173.603 312.118 172.592 315.177 171.753 318.146C169.804 325.036 168.282 332.032 166.385 338.938C166.143 339.82 165.804 340.942 165.661 341.829C166.047 343.618 163.986 346.222 164.282 347.244C164.636 348.464 168.433 351.002 169.555 351.817C174.281 355.25 179.398 357.979 183.999 361.608C186.658 363.705 189.329 364.169 191.362 367.226L190.883 366.825C191.07 367.685 190.851 367.372 191.417 367.879C191.549 367.729 191.713 367.544 191.909 367.322C192.08 363.67 191.792 359.606 191.761 356.066C191.705 349.557 191.732 343.068 191.732 336.587L191.98 241.467L191.992 222.271C191.993 220.775 191.899 214.906 192.089 213.872C192.424 217.163 192.25 222.494 192.259 225.944L192.266 249.284C192.263 255.776 192.414 262.073 192.587 268.554C192.75 274.694 192.324 281.009 192.508 287.172C192.746 297.682 192.363 308.106 192.136 318.582C191.791 334.491 192.429 350.568 192.171 366.484C192.164 368.116 191.812 369.666 191.934 371.303C178.392 364.963 165.472 356.459 153.508 347.545C116.657 320.089 90.6525 287.391 74.1757 244.331L74.4554 243.893Z"/><path fill="#2354B4" d="M74.4554 243.893C75.0828 245.495 75.4015 246.805 76.4591 248.139L76.7531 248.252L77.0596 247.777C77.7264 247.982 77.755 248.106 77.8244 248.852C78.5751 248.351 79.4517 247.806 80.1301 247.227C79.0112 244.105 77.5976 241.142 76.4033 237.935C62.4414 200.444 58.9997 158.938 58.9566 119.217C58.9523 115.277 58.5638 110.514 58.9413 106.779L59.0981 106.598C59.3342 118.668 59.0118 130.535 59.5306 142.679C60.1475 155.677 61.3825 168.639 63.2312 181.52C64.0906 187.728 64.734 193.221 65.8995 199.418C70.2874 223.061 78.5846 245.807 90.4503 266.722C94.8185 274.558 97.581 280.448 104.226 286.501C105.15 287.343 109.163 294.091 110.296 295.687C117.271 305.603 125.196 314.817 133.958 323.195C141.324 330.277 155.105 341.891 163.648 346.753C164.76 344.661 164.944 343.247 165.661 341.829C166.047 343.618 163.986 346.222 164.282 347.244C164.636 348.464 168.433 351.002 169.555 351.817C174.281 355.25 179.398 357.979 183.999 361.608C186.658 363.705 189.329 364.169 191.362 367.226L190.883 366.825C191.07 367.685 190.851 367.372 191.417 367.879C191.549 367.729 191.713 367.544 191.909 367.322C192.08 363.67 191.792 359.606 191.761 356.066C191.705 349.557 191.732 343.068 191.732 336.587L191.98 241.467L191.992 222.271C191.993 220.775 191.899 214.906 192.089 213.872C192.424 217.163 192.25 222.494 192.259 225.944L192.266 249.284C192.263 255.776 192.414 262.073 192.587 268.554C192.75 274.694 192.324 281.009 192.508 287.172C192.746 297.682 192.363 308.106 192.136 318.582C191.791 334.491 192.429 350.568 192.171 366.484C192.164 368.116 191.812 369.666 191.934 371.303C178.392 364.963 165.472 356.459 153.508 347.545C116.657 320.089 90.6525 287.391 74.1757 244.331L74.4554 243.893Z"/><path fill="#DDF1FA" d="M123.498 97.3616L128.52 97.1984C128.416 101.772 128.589 107.15 128.756 111.727C120.089 111.059 103.899 113.197 94.7622 113.52C95.0425 126.04 94.6495 138.673 95.0349 151.328C92.4661 151.058 90.1373 150.834 87.5601 150.7C85.6618 150.477 82.8279 150.455 80.8329 150.39L80.7536 102.052C94.453 98.7675 109.414 97.9162 123.498 97.3616Z"/><path fill="#BFDCF4" d="M100.181 234.275C103.579 234.763 110.866 234.702 114.43 234.717C113.975 245.341 114.774 259.226 115.645 269.716C125.609 270.467 137.297 272.719 147.031 273.018C146.921 277.711 147.086 282.847 147.237 287.538C131.998 286.243 117.338 283.789 102.279 282.345C101.745 276.212 100.682 269.944 100.439 263.818C100.05 254.025 100.189 244.084 100.181 234.275Z"/><path fill="#DDF1FA" d="M255.274 97.3354C264.953 97.5438 274.187 97.859 283.826 98.9225C290.584 99.6681 296.319 99.2708 302.687 101.825C303.327 113.86 302.994 126.434 303.189 138.524C303.213 140.041 303.309 149.329 303.066 150.332L302.558 150.484C298.054 150.853 293.437 151.289 288.931 151.484C289.005 138.747 289.013 126.01 288.955 113.273C284.457 113.183 278.879 112.714 274.31 112.456C267.978 112.135 261.643 111.857 255.307 111.622L255.274 97.3354Z"/><path fill="#BFDCF4" d="M279.612 234.64L283.723 234.45C283.158 242.681 284.914 276.699 281.523 281.309C278.417 283.385 247.84 286.247 242.061 286.697L237.782 287.019L237.782 272.791C242.984 272.6 248.171 272.104 253.316 271.307C258.413 270.484 263.607 269.37 268.738 268.888C269.068 257.215 269.539 246.466 269.481 234.74C272.928 234.764 276.159 234.774 279.612 234.64Z"/></svg>